<mxfile host="app.diagrams.net" agent="Mozilla/5.0 (Windows NT 10.0; Win64; x64) AppleWebKit/537.36 (KHTML, like Gecko) Chrome/131.0.0.0 Safari/537.36 Edg/131.0.0.0" version="25.0.1">
  <diagram name="Page-1" id="GJw1rwBfmh74w0MrWLVk">
    <mxGraphModel dx="1756" dy="1591" grid="1" gridSize="10" guides="1" tooltips="1" connect="1" arrows="1" fold="1" page="1" pageScale="1" pageWidth="850" pageHeight="1100" math="0" shadow="0">
      <root>
        <mxCell id="0" />
        <mxCell id="1" parent="0" />
        <mxCell id="4fO3y6M4LABTlmIg8MEt-4" value="" style="edgeStyle=orthogonalEdgeStyle;rounded=0;orthogonalLoop=1;jettySize=auto;html=1;" edge="1" parent="1" source="4fO3y6M4LABTlmIg8MEt-1" target="4fO3y6M4LABTlmIg8MEt-3">
          <mxGeometry relative="1" as="geometry" />
        </mxCell>
        <mxCell id="4fO3y6M4LABTlmIg8MEt-1" value="&lt;font data-font-src=&quot;https://fonts.googleapis.com/css?family=Sarabun&quot; face=&quot;Sarabun&quot;&gt;Start&lt;/font&gt;" style="ellipse;whiteSpace=wrap;html=1;" vertex="1" parent="1">
          <mxGeometry x="-530.0000000000001" y="-1080" width="130" height="30" as="geometry" />
        </mxCell>
        <mxCell id="4fO3y6M4LABTlmIg8MEt-6" value="" style="edgeStyle=orthogonalEdgeStyle;rounded=0;orthogonalLoop=1;jettySize=auto;html=1;" edge="1" parent="1" source="4fO3y6M4LABTlmIg8MEt-3" target="4fO3y6M4LABTlmIg8MEt-5">
          <mxGeometry relative="1" as="geometry" />
        </mxCell>
        <mxCell id="4fO3y6M4LABTlmIg8MEt-3" value="กำหนดตัวแปร name" style="rounded=0;whiteSpace=wrap;html=1;" vertex="1" parent="1">
          <mxGeometry x="-530.0000000000001" y="-1010" width="130" height="40" as="geometry" />
        </mxCell>
        <mxCell id="4fO3y6M4LABTlmIg8MEt-8" value="" style="edgeStyle=orthogonalEdgeStyle;rounded=0;orthogonalLoop=1;jettySize=auto;html=1;" edge="1" parent="1" source="4fO3y6M4LABTlmIg8MEt-5" target="4fO3y6M4LABTlmIg8MEt-7">
          <mxGeometry relative="1" as="geometry" />
        </mxCell>
        <mxCell id="4fO3y6M4LABTlmIg8MEt-5" value="รับค่า name" style="rounded=0;whiteSpace=wrap;html=1;shape=parallelogram;perimeter=parallelogramPerimeter;fixedSize=1;" vertex="1" parent="1">
          <mxGeometry x="-530.0000000000001" y="-940" width="130" height="40" as="geometry" />
        </mxCell>
        <mxCell id="4fO3y6M4LABTlmIg8MEt-10" value="" style="edgeStyle=orthogonalEdgeStyle;rounded=0;orthogonalLoop=1;jettySize=auto;html=1;" edge="1" parent="1" source="4fO3y6M4LABTlmIg8MEt-7" target="4fO3y6M4LABTlmIg8MEt-9">
          <mxGeometry relative="1" as="geometry" />
        </mxCell>
        <mxCell id="4fO3y6M4LABTlmIg8MEt-7" value="แสดงค่า name" style="rounded=0;whiteSpace=wrap;html=1;shape=parallelogram;perimeter=parallelogramPerimeter;fixedSize=1;" vertex="1" parent="1">
          <mxGeometry x="-530.0000000000001" y="-870" width="130" height="40" as="geometry" />
        </mxCell>
        <mxCell id="4fO3y6M4LABTlmIg8MEt-9" value="&lt;font data-font-src=&quot;https://fonts.googleapis.com/css?family=Sarabun&quot; face=&quot;Sarabun&quot;&gt;End&lt;/font&gt;" style="ellipse;whiteSpace=wrap;html=1;" vertex="1" parent="1">
          <mxGeometry x="-530.0000000000001" y="-790" width="130" height="30" as="geometry" />
        </mxCell>
      </root>
    </mxGraphModel>
  </diagram>
</mxfile>
